# xmcd
#
# Track frame offsets: 
#        150
#        21846
#        29340
#        43972
#        52061
#        73759
#        80208
#        88898
#        97106
#        103993
#        129291
#        137790
#        149388
#        168753
#        179610
#        197536
#        213060
#        220496
#        229230
#        241420
#        253676
#        260588
#        269029
#        282167
#        289575
#
# Disc length: 4026 seconds
#
# Revision: 2
# Processed by: cddbd v1.5.2PL0 Copyright (c) Steve Scherf et al.
# Submitted via: ExactAudioCopy v1.3
#
DISCID=920fb819
DTITLE=Various Artist - Parappa the Rapper TV Animation Soundtrack Vol.1
DYEAR=2001
DGENRE=Anime
TTITLE0=NONA REEVES - LOVE TOGETHER〜パラッパラッパーMIX〜
TTITLE1=Masaya Matsuura - パラッパ登場 YEAHHH!
TTITLE2=Masaya Matsuura - WELCOME TO パラッパタウン!
TTITLE3=Masaya Matsuura - LOVELYサニーちゃん
TTITLE4=Chara - 愛の絆
TTITLE5=Masaya Matsuura - ほう・れん・そう・マット
TTITLE6=Masaya Matsuura - キューティ・ケイティ
TTITLE7=Masaya Matsuura - なまいきピント
TTITLE8=Masaya Matsuura - ウインドーショッピング
TTITLE9=ELEPHANT LOVE - 大人は楽しい〜パラッパラッパーMIX〜
TTITLE10=Masaya Matsuura - パラッパファミリー
TTITLE11=Masaya Matsuura - ポーラのテクスキューズ・ミ〜!!
TTITLE12=Masaya Matsuura - ガスター&グルーバーのテーマ
TTITLE13=Masaya Matsuura - 捕まえろ ゴー!ゴー!
TTITLE14=BENNIE K - SCHOOL GIRL
TTITLE15=Masaya Matsuura - バケツ狂想曲
TTITLE16=Masaya Matsuura - ブルジョアだねぇ
TTITLE17=Masaya Matsuura - 誰にも見つかるな!
TTITLE18=Masaya Matsuura - もしかして怖いの?
TTITLE19=Masaya Matsuura - いい子ちゃんぶってるの!
TTITLE20=Masaya Matsuura - PJおさんぽふぜい
TTITLE21=Masaya Matsuura - クールで行こう
TTITLE22=Masaya Matsuura - 遊びに行こうよ
TTITLE23=Masaya Matsuura - 今日はダンスパーティー
TTITLE24=Masaya Matsuura - ドロシーダンスショー
EXTD=
EXTT0=
EXTT1=
EXTT2=
EXTT3=
EXTT4=
EXTT5=
EXTT6=
EXTT7=
EXTT8=
EXTT9=
EXTT10=
EXTT11=
EXTT12=
EXTT13=
EXTT14=
EXTT15=
EXTT16=
EXTT17=
EXTT18=
EXTT19=
EXTT20=
EXTT21=
EXTT22=
EXTT23=
EXTT24=
PLAYORDER=
